<svg xmlns="http://www.w3.org/2000/svg" width="1600" height="2000" viewBox="0 0 1600 2000">
  <defs>
    <linearGradient id="bg" x1="0%" y1="0%" x2="100%" y2="100%">
      <stop offset="0%" stop-color="#1f2f46"/>
      <stop offset="50%" stop-color="#22344f"/>
      <stop offset="100%" stop-color="#100f1e"/>
    </linearGradient>
    <linearGradient id="street" x1="0%" y1="0%" x2="0%" y2="100%">
      <stop offset="0%" stop-color="#1f1d2f"/>
      <stop offset="100%" stop-color="#0d0c14"/>
    </linearGradient>
  </defs>
  <rect width="1600" height="2000" fill="url(#bg)"/>
  <rect x="0" y="980" width="1600" height="1020" fill="url(#street)"/>
  <rect x="210" y="250" width="220" height="620" rx="24" fill="#38475f"/>
  <rect x="1150" y="190" width="240" height="760" rx="28" fill="#293750"/>
  <rect x="280" y="350" width="84" height="184" rx="10" fill="#efb36f"/>
  <rect x="1210" y="310" width="90" height="220" rx="10" fill="#f4d7b0"/>
  <rect x="1080" y="770" width="170" height="26" rx="13" fill="#f86f3d"/>
  <rect x="220" y="1120" width="1160" height="420" rx="44" fill="#11111a"/>
  <path d="M120 1460 C420 1320 720 1600 1040 1450 C1260 1350 1420 1420 1520 1480" stroke="#f6aa4f" stroke-width="34" stroke-linecap="round" fill="none" opacity="0.85"/>
  <path d="M220 1540 C520 1480 850 1730 1360 1640" stroke="#59b9f5" stroke-width="20" stroke-linecap="round" fill="none" opacity="0.7"/>
  <circle cx="850" cy="930" r="36" fill="#f47e45"/>
  <rect x="818" y="940" width="62" height="330" rx="31" fill="#1d2236"/>
  <circle cx="810" cy="1260" r="58" fill="#11111a"/>
  <circle cx="888" cy="1260" r="58" fill="#11111a"/>
</svg>
